<svg width="30" height="30" viewBox="0 0 30 30" fill="none" xmlns="http://www.w3.org/2000/svg">
<path d="M9.74016 24.6274C9.21577 24.8007 8.93115 25.3663 9.10445 25.8907C9.27776 26.4151 9.84335 26.6997 10.3677 26.5264L10.0539 25.5769L9.74016 24.6274ZM17.3277 26.0577L17.2378 25.0617L17.2378 25.0617L17.3277 26.0577ZM21.692 25.0962L22.1275 25.9963L22.1275 25.9963L21.692 25.0962ZM25.8621 21.3351L25.0877 20.7024L25.0877 20.7024L25.8621 21.3351ZM23.01 18.9817L23.7141 19.6919L23.7141 19.6919L23.01 18.9817ZM21.0894 20.8859L21.7935 21.596L21.7935 21.596L21.0894 20.8859ZM15.873 20.7308C15.3207 20.7308 14.873 21.1785 14.873 21.7308C14.873 22.2831 15.3207 22.7308 15.873 22.7308V21.7308V20.7308ZM25.4187 18.7453L24.8673 19.5795L24.8673 19.5795L25.4187 18.7453ZM11.53 18.1144L11.9742 19.0104L11.9742 19.0104L11.53 18.1144ZM16.7501 17.641L17.0111 16.6757L17.0111 16.6757L16.7501 17.641ZM18.7886 18.1922L18.5276 19.1575L18.5276 19.1575L18.7886 18.1922ZM19.4345 20.6036L18.7304 19.8934L18.7304 19.8934L19.4345 20.6036ZM17.5935 21.0206C17.2013 21.4095 17.1986 22.0426 17.5874 22.4348C17.9763 22.827 18.6094 22.8298 19.0016 22.4409L18.2976 21.7308L17.5935 21.0206ZM10.0539 25.5769L10.3677 26.5264C10.538 26.4701 10.8603 26.4399 11.3927 26.4775C11.9048 26.5137 12.5004 26.6024 13.1733 26.7072C14.4608 26.9077 16.0552 27.1767 17.4177 27.0536L17.3277 26.0577L17.2378 25.0617C16.1756 25.1577 14.8606 24.9459 13.481 24.731C12.8204 24.6282 12.143 24.5256 11.5338 24.4825C10.9449 24.4409 10.2972 24.4433 9.74016 24.6274L10.0539 25.5769ZM17.3277 26.0577L17.4177 27.0536C19.304 26.8833 20.1992 26.9293 22.1275 25.9963L21.692 25.0962L21.2565 24.196C19.7136 24.9425 19.198 24.8847 17.2378 25.0617L17.3277 26.0577ZM21.692 25.0962L22.1275 25.9963C23.8595 25.1584 25.5906 23.2481 26.6366 21.9677L25.8621 21.3351L25.0877 20.7024C24.032 21.9947 22.5461 23.572 21.2565 24.196L21.692 25.0962ZM23.01 18.9817L22.3059 18.2716L20.3854 20.1757L21.0894 20.8859L21.7935 21.596L23.7141 19.6919L23.01 18.9817ZM19.0321 21.7308V20.7308H15.873V21.7308V22.7308H19.0321V21.7308ZM21.0894 20.8859L20.3854 20.1757C20.0279 20.5301 19.5413 20.7308 19.0321 20.7308V21.7308V22.7308C20.0662 22.7308 21.0597 22.3236 21.7935 21.596L21.0894 20.8859ZM25.4187 18.7453L25.9701 17.911C24.8189 17.1501 23.2865 17.2994 22.3059 18.2716L23.01 18.9817L23.7141 19.6919C24.0204 19.3882 24.5043 19.3396 24.8673 19.5795L25.4187 18.7453ZM25.8621 21.3351L26.6366 21.9677C27.7115 20.6519 27.3067 18.7944 25.9701 17.911L25.4187 18.7453L24.8673 19.5795C25.3 19.8655 25.3511 20.38 25.0877 20.7024L25.8621 21.3351ZM4.71984 16.9231V17.9231H8.59919V16.9231V15.9231H4.71984V16.9231ZM9.56903 17.8846H8.56903V26.5385H9.56903H10.569V17.8846H9.56903ZM8.59919 27.5V26.5H4.71984V27.5V28.5H8.59919V27.5ZM3.75 26.5385H4.75V17.8846H3.75H2.75V26.5385H3.75ZM4.71984 27.5V26.5C4.72093 26.5 4.72467 26.5004 4.72905 26.5022C4.73279 26.5038 4.73574 26.5059 4.73812 26.5082C4.7405 26.5106 4.74349 26.5144 4.74601 26.5203C4.74883 26.5269 4.75 26.5338 4.75 26.5385H3.75H2.75C2.75 27.6299 3.64005 28.5 4.71984 28.5V27.5ZM9.56903 26.5385H8.56903C8.56903 26.5338 8.5702 26.5269 8.57302 26.5203C8.57554 26.5144 8.57852 26.5106 8.58091 26.5082C8.58329 26.5059 8.58624 26.5038 8.58998 26.5022C8.59436 26.5004 8.5981 26.5 8.59919 26.5V27.5V28.5C9.67898 28.5 10.569 27.6299 10.569 26.5385H9.56903ZM8.59919 16.9231V17.9231C8.5981 17.9231 8.59436 17.9227 8.58998 17.9208C8.58623 17.9193 8.58329 17.9172 8.58091 17.9148C8.57852 17.9125 8.57554 17.9087 8.57302 17.9027C8.5702 17.8961 8.56903 17.8893 8.56903 17.8846H9.56903H10.569C10.569 16.7932 9.67898 15.9231 8.59919 15.9231V16.9231ZM4.71984 16.9231V15.9231C3.64005 15.9231 2.75 16.7932 2.75 17.8846H3.75H4.75C4.75 17.8893 4.74883 17.8961 4.74601 17.9027C4.74349 17.9087 4.74051 17.9125 4.73812 17.9148C4.73574 17.9172 4.73279 17.9193 4.72905 17.9208C4.72467 17.9227 4.72093 17.9231 4.71984 17.9231V16.9231ZM10.0539 18.8462L10.4981 19.7421L11.9742 19.0104L11.53 18.1144L11.0859 17.2185L9.6098 17.9502L10.0539 18.8462ZM14.5661 17.4038V18.4038H14.9638V17.4038V16.4038H14.5661V17.4038ZM16.7501 17.641L16.4891 18.6063L18.5276 19.1575L18.7886 18.1922L19.0496 17.2269L17.0111 16.6757L16.7501 17.641ZM19.4345 20.6036L18.7304 19.8934L17.5935 21.0206L18.2976 21.7308L19.0016 22.4409L20.1386 21.3137L19.4345 20.6036ZM18.7886 18.1922L18.5276 19.1575C18.8695 19.25 18.9669 19.659 18.7304 19.8934L19.4345 20.6036L20.1386 21.3137C21.4818 19.982 20.863 17.7172 19.0496 17.2269L18.7886 18.1922ZM14.9638 17.4038V18.4038C15.4791 18.4038 15.9921 18.472 16.4891 18.6063L16.7501 17.641L17.0111 16.6757C16.3438 16.4952 15.6553 16.4038 14.9638 16.4038V17.4038ZM11.53 18.1144L11.9742 19.0104C12.7785 18.6116 13.666 18.4038 14.5661 18.4038V17.4038V16.4038C13.3583 16.4038 12.1668 16.6826 11.0859 17.2185L11.53 18.1144ZM22.1769 10.1923H21.1769C21.1769 11.7561 19.8959 13.0385 18.2976 13.0385V14.0385V15.0385C20.9842 15.0385 23.1769 12.8769 23.1769 10.1923H22.1769ZM18.2976 14.0385V13.0385C16.6992 13.0385 15.4182 11.7561 15.4182 10.1923H14.4182H13.4182C13.4182 12.8769 15.6109 15.0385 18.2976 15.0385V14.0385ZM14.4182 10.1923H15.4182C15.4182 8.62851 16.6992 7.34615 18.2976 7.34615V6.34615V5.34615C15.6109 5.34615 13.4182 7.50777 13.4182 10.1923H14.4182ZM18.2976 6.34615V7.34615C19.8959 7.34615 21.1769 8.62851 21.1769 10.1923H22.1769H23.1769C23.1769 7.50777 20.9842 5.34615 18.2976 5.34615V6.34615ZM14.4182 10.1923V9.19231C12.8199 9.19231 11.5389 7.90996 11.5389 6.34615H10.5389H9.53887C9.53887 9.0307 11.7315 11.1923 14.4182 11.1923V10.1923ZM10.5389 6.34615H11.5389C11.5389 4.78235 12.8199 3.5 14.4182 3.5V2.5V1.5C11.7315 1.5 9.53887 3.66161 9.53887 6.34615H10.5389ZM14.4182 2.5V3.5C16.0166 3.5 17.2976 4.78235 17.2976 6.34615H18.2976H19.2976C19.2976 3.66161 17.1049 1.5 14.4182 1.5V2.5Z" fill="white"/>
</svg>
