<svg width="30" height="30" viewBox="0 0 30 30" fill="none" xmlns="http://www.w3.org/2000/svg">
<path fill-rule="evenodd" clip-rule="evenodd" d="M4.75806 7.758C5.88323 6.63317 7.40908 6.00128 9.00006 6.00128C10.591 6.00128 12.1169 6.63317 13.2421 7.758L15.0001 9.5145L16.7581 7.758C17.3115 7.18494 17.9736 6.72784 18.7056 6.41339C19.4377 6.09894 20.225 5.93342 21.0217 5.9265C21.8183 5.91957 22.6084 6.07138 23.3458 6.37307C24.0832 6.67475 24.7531 7.12027 25.3164 7.68363C25.8798 8.24698 26.3253 8.9169 26.627 9.65427C26.9287 10.3917 27.0805 11.1817 27.0736 11.9784C27.0666 12.7751 26.9011 13.5624 26.5867 14.2944C26.2722 15.0264 25.8151 15.6885 25.2421 16.242L15.0001 26.4855L4.75806 16.242C3.63323 15.1168 3.00134 13.591 3.00134 12C3.00134 10.409 3.63323 8.88316 4.75806 7.758V7.758Z" stroke="white" stroke-width="2" stroke-linejoin="round"/>
</svg>
