<svg width="117" height="20" viewBox="0 0 117 20" fill="none" xmlns="http://www.w3.org/2000/svg">
<path d="M9.56003 0.313909C9.7666 -0.104636 10.3634 -0.104636 10.57 0.313909L13.244 5.73203C13.326 5.89824 13.4846 6.01344 13.668 6.04009L19.6473 6.90893C20.1092 6.97604 20.2936 7.54367 19.9594 7.86946L15.6327 12.0869C15.5 12.2163 15.4394 12.4026 15.4708 12.5853L16.4921 18.5404C16.571 19.0004 16.0882 19.3513 15.6751 19.1341L10.3271 16.3224C10.163 16.2362 9.96702 16.2362 9.80297 16.3224L4.45496 19.1341C4.04183 19.3513 3.55898 19.0004 3.63788 18.5404L4.65926 12.5853C4.69059 12.4026 4.63003 12.2163 4.4973 12.0869L0.170675 7.86946C-0.163554 7.54367 0.0208777 6.97604 0.48277 6.90893L6.46203 6.04009C6.64544 6.01344 6.804 5.89824 6.88603 5.73203L9.56003 0.313909Z" fill="#FFC700"/>
<path d="M105.56 0.313909C105.767 -0.104636 106.363 -0.104636 106.57 0.313909L109.244 5.73203C109.326 5.89824 109.485 6.01344 109.668 6.04009L115.647 6.90893C116.109 6.97604 116.294 7.54367 115.959 7.86946L111.633 12.0869C111.5 12.2163 111.439 12.4026 111.471 12.5853L112.492 18.5404C112.571 19.0004 112.088 19.3513 111.675 19.1341L106.327 16.3224C106.163 16.2362 105.967 16.2362 105.803 16.3224L100.455 19.1341C100.042 19.3513 99.559 19.0004 99.6379 18.5404L100.659 12.5853C100.691 12.4026 100.63 12.2163 100.497 12.0869L96.1707 7.86946C95.8364 7.54367 96.0209 6.97604 96.4828 6.90893L102.462 6.04009C102.645 6.01344 102.804 5.89824 102.886 5.73203L105.56 0.313909Z" fill="#FFC700"/>
<path d="M81.56 0.313909C81.7666 -0.104636 82.3634 -0.104636 82.57 0.313909L85.244 5.73203C85.326 5.89824 85.4846 6.01344 85.668 6.04009L91.6473 6.90893C92.1092 6.97604 92.2936 7.54367 91.9594 7.86946L87.6327 12.0869C87.5 12.2163 87.4394 12.4026 87.4708 12.5853L88.4921 18.5404C88.571 19.0004 88.0882 19.3513 87.6751 19.1341L82.3271 16.3224C82.163 16.2362 81.967 16.2362 81.803 16.3224L76.455 19.1341C76.0418 19.3513 75.559 19.0004 75.6379 18.5404L76.6593 12.5853C76.6906 12.4026 76.63 12.2163 76.4973 12.0869L72.1707 7.86946C71.8364 7.54367 72.0209 6.97604 72.4828 6.90893L78.462 6.04009C78.6454 6.01344 78.804 5.89824 78.886 5.73203L81.56 0.313909Z" fill="#FFC700"/>
<path d="M57.56 0.313909C57.7666 -0.104636 58.3634 -0.104636 58.57 0.313909L61.244 5.73203C61.326 5.89824 61.4846 6.01344 61.668 6.04009L67.6473 6.90893C68.1092 6.97604 68.2936 7.54367 67.9594 7.86946L63.6327 12.0869C63.5 12.2163 63.4394 12.4026 63.4708 12.5853L64.4921 18.5404C64.571 19.0004 64.0882 19.3513 63.6751 19.1341L58.3271 16.3224C58.163 16.2362 57.967 16.2362 57.803 16.3224L52.455 19.1341C52.0418 19.3513 51.559 19.0004 51.6379 18.5404L52.6593 12.5853C52.6906 12.4026 52.63 12.2163 52.4973 12.0869L48.1707 7.86946C47.8364 7.54367 48.0209 6.97604 48.4828 6.90893L54.462 6.04009C54.6454 6.01344 54.804 5.89824 54.886 5.73203L57.56 0.313909Z" fill="#FFC700"/>
<path d="M33.56 0.313909C33.7666 -0.104636 34.3634 -0.104636 34.57 0.313909L37.244 5.73203C37.326 5.89824 37.4846 6.01344 37.668 6.04009L43.6473 6.90893C44.1092 6.97604 44.2936 7.54367 43.9594 7.86946L39.6327 12.0869C39.5 12.2163 39.4394 12.4026 39.4708 12.5853L40.4921 18.5404C40.571 19.0004 40.0882 19.3513 39.6751 19.1341L34.3271 16.3224C34.163 16.2362 33.967 16.2362 33.803 16.3224L28.455 19.1341C28.0418 19.3513 27.559 19.0004 27.6379 18.5404L28.6593 12.5853C28.6906 12.4026 28.63 12.2163 28.4973 12.0869L24.1707 7.86946C23.8364 7.54367 24.0209 6.97604 24.4828 6.90893L30.462 6.04009C30.6454 6.01344 30.804 5.89824 30.886 5.73203L33.56 0.313909Z" fill="#FFC700"/>
</svg>
