<svg width="30" height="30" viewBox="0 0 30 30" fill="none" xmlns="http://www.w3.org/2000/svg">
<path fill-rule="evenodd" clip-rule="evenodd" d="M17.0954 5.39534C16.561 3.20155 13.439 3.20155 12.9046 5.39534C12.8248 5.72499 12.6683 6.03115 12.4479 6.2889C12.2274 6.54665 11.9492 6.74871 11.6359 6.87863C11.3226 7.00856 10.9831 7.06267 10.6449 7.03658C10.3067 7.01049 9.9795 6.90493 9.68983 6.72848C7.7604 5.55284 5.55252 7.76069 6.72818 9.69009C7.48758 10.936 6.81396 12.5617 5.39642 12.9062C3.20119 13.4392 3.20119 16.5625 5.39642 17.0941C5.72616 17.174 6.03238 17.3306 6.29013 17.5513C6.54789 17.7719 6.74989 18.0503 6.87969 18.3637C7.00949 18.6772 7.06343 19.0169 7.0371 19.3551C7.01077 19.6934 6.90492 20.0207 6.72818 20.3103C5.55252 22.2397 7.7604 24.4475 9.68983 23.2719C9.97945 23.0951 10.3067 22.9893 10.645 22.963C10.9832 22.9366 11.3229 22.9906 11.6364 23.1204C11.9499 23.2502 12.2283 23.4522 12.4489 23.7099C12.6695 23.9677 12.8261 24.2739 12.906 24.6036C13.439 26.7988 16.5624 26.7988 17.094 24.6036C17.1741 24.274 17.3309 23.968 17.5516 23.7105C17.7723 23.4529 18.0506 23.251 18.364 23.1213C18.6774 22.9915 19.0169 22.9375 19.3551 22.9637C19.6933 22.9898 20.0205 23.0954 20.3102 23.2719C22.2396 24.4475 24.4475 22.2397 23.2718 20.3103C23.0954 20.0206 22.9898 19.6934 22.9636 19.3552C22.9375 19.017 22.9914 18.6775 23.1212 18.3641C23.251 18.0507 23.4528 17.7724 23.7104 17.5517C23.968 17.3311 24.274 17.1743 24.6036 17.0941C26.7988 16.5611 26.7988 13.4378 24.6036 12.9062C24.2738 12.8264 23.9676 12.6697 23.7099 12.4491C23.4521 12.2285 23.2501 11.9501 23.1203 11.6366C22.9905 11.3232 22.9366 10.9835 22.9629 10.6452C22.9892 10.307 23.0951 9.9797 23.2718 9.69009C24.4475 7.76069 22.2396 5.55284 20.3102 6.72848C20.0206 6.90523 19.6933 7.01107 19.355 7.0374C19.0168 7.06373 18.6771 7.0098 18.3636 6.87999C18.0501 6.75019 17.7717 6.5482 17.5511 6.29045C17.3305 6.0327 17.1739 5.72648 17.094 5.39674L17.0954 5.39534Z" stroke="white" stroke-width="2"/>
<path d="M17.5 15C17.5 16.3807 16.3807 17.5 15 17.5C13.6193 17.5 12.5 16.3807 12.5 15C12.5 13.6193 13.6193 12.5 15 12.5C16.3807 12.5 17.5 13.6193 17.5 15Z" stroke="white" stroke-width="2"/>
</svg>
